<svg width="42" height="42" viewBox="0 0 42 42" fill="none" xmlns="http://www.w3.org/2000/svg">
<g clip-path="url(#clip0_4123_1535)">
<path d="M33.7149 16.4224L30.9259 11.599C30.6911 11.1874 30.3772 10.8263 30.0024 10.5365C29.6275 10.2467 29.1989 10.0339 28.7415 9.91039C28.284 9.78687 27.8066 9.75507 27.3368 9.8168C26.867 9.87854 26.414 10.0326 26.004 10.2701C25.2728 10.6858 24.7142 11.3491 24.429 12.1404L21.5415 7.16932C21.3067 6.75771 20.9929 6.39661 20.618 6.10681C20.2431 5.81701 19.8146 5.60422 19.3571 5.4807C18.8996 5.35719 18.4222 5.32538 17.9524 5.38711C17.4826 5.44885 17.0297 5.6029 16.6196 5.84041C15.8884 6.25612 15.3298 6.91944 15.0446 7.71072C14.5438 6.92569 13.7602 6.36343 12.8561 6.14046C11.952 5.91749 10.9968 6.05091 10.1884 6.51307C9.77817 6.75095 9.41911 7.06768 9.1319 7.445C8.84469 7.82232 8.635 8.25276 8.51494 8.7115C8.37105 9.22428 8.34858 9.76353 8.44932 10.2865C7.80852 10.3356 7.18657 10.5261 6.62822 10.8443C5.64856 11.4136 4.93445 12.3479 4.64231 13.4426C4.35018 14.5374 4.50384 15.7033 5.06963 16.6849L5.39776 17.2428C4.83484 17.3081 4.29231 17.4926 3.80635 17.7842C2.82781 18.3503 2.11401 19.2817 1.82176 20.3737C1.52952 21.4658 1.68274 22.6292 2.24775 23.6084L8.31807 34.1248C9.61519 36.3752 11.5509 38.1902 13.8801 39.3399C16.2093 40.4896 18.8273 40.9223 21.4025 40.5832C23.9778 40.2442 26.3946 39.1487 28.3469 37.4353C30.2992 35.722 31.6992 33.4679 32.3696 30.9584L32.4189 30.7451C34.0765 28.7783 35.0899 26.3496 35.3217 23.7878C35.5535 21.226 34.9926 18.6549 33.7149 16.4224ZM29.8267 30.2857C29.4748 31.6181 28.8613 32.8671 28.022 33.96C27.1826 35.0528 26.1341 35.9677 24.9376 36.6513C22.5268 38.0427 19.6622 38.42 16.9734 37.7001C14.2846 36.9802 11.9916 35.2221 10.5985 32.8123L4.52822 22.2959C4.36486 22.0154 4.28837 21.6928 4.30842 21.3688C4.32848 21.0448 4.44419 20.7341 4.64091 20.4759C4.83763 20.2177 5.10651 20.0236 5.41354 19.9183C5.72057 19.813 6.05194 19.8011 6.36572 19.8842C6.78647 20.0021 7.14516 20.2785 7.36651 20.6553L11.304 27.4803C11.4213 27.6769 11.5868 27.8404 11.7849 27.9553C11.983 28.0701 12.2071 28.1325 12.436 28.1365C12.666 28.1357 12.8918 28.0745 13.0907 27.9589C13.2895 27.8434 13.4546 27.6776 13.5692 27.4783C13.6839 27.2789 13.7441 27.0528 13.7439 26.8228C13.7437 26.5928 13.6831 26.3669 13.5681 26.1678L7.33369 15.3724C7.11613 14.9939 7.05786 14.5444 7.1717 14.1229C7.28554 13.7014 7.56217 13.3423 7.94072 13.1248C8.31928 12.9072 8.76876 12.849 9.19027 12.9628C9.61179 13.0766 9.97082 13.3533 10.1884 13.7318L16.4228 24.5271C16.501 24.6903 16.6122 24.8356 16.7493 24.9537C16.8864 25.0719 17.0465 25.1604 17.2194 25.2137C17.3924 25.2671 17.5745 25.2841 17.7543 25.2636C17.9342 25.2432 18.1078 25.1858 18.2644 25.095C18.421 25.0042 18.5571 24.8821 18.6642 24.7362C18.7713 24.5902 18.8471 24.4238 18.8868 24.2472C18.9264 24.0706 18.9291 23.8877 18.8947 23.71C18.8603 23.5323 18.7895 23.3636 18.6868 23.2146L13.7649 14.6834C13.5503 14.3042 13.4936 13.8557 13.6072 13.435C13.7208 13.0143 13.9956 12.6553 14.372 12.4357C14.7487 12.2218 15.1947 12.1656 15.6127 12.2793C16.0307 12.3931 16.3868 12.6675 16.6032 13.0428L23.4938 24.9865C23.6125 25.1855 23.7806 25.3505 23.9818 25.4655C24.1831 25.5805 24.4105 25.6415 24.6423 25.6428C24.8725 25.637 25.0978 25.5751 25.2985 25.4623C25.598 25.2875 25.8161 25.0013 25.9052 24.6663C25.9943 24.3312 25.9473 23.9745 25.7743 23.674L23.1493 19.1131C22.9339 18.7408 22.8749 18.2983 22.9853 17.8826C23.0377 17.6716 23.1333 17.4737 23.2661 17.3015C23.3988 17.1293 23.5657 16.9864 23.7564 16.8818C23.9389 16.7707 24.1425 16.6988 24.3544 16.6705C24.5662 16.6423 24.7815 16.6584 24.9868 16.7178C25.1957 16.7701 25.3919 16.8639 25.5638 16.9936C25.7357 17.1232 25.8798 17.286 25.9876 17.4724L28.7767 22.3123C29.4713 23.5054 29.9218 24.8248 30.1021 26.1936C30.2823 27.5624 30.1887 28.9534 29.8267 30.2857ZM27.0704 4.05213L27.7431 1.50916C27.7872 1.34219 27.8639 1.18555 27.9686 1.04819C28.0733 0.910824 28.204 0.79543 28.3533 0.708593C28.5026 0.621756 28.6675 0.565175 28.8387 0.542082C29.0099 0.51899 29.1839 0.529836 29.3509 0.574004C29.5179 0.618171 29.6745 0.694794 29.8119 0.799497C29.9492 0.9042 30.0646 1.03493 30.1515 1.18423C30.2383 1.33353 30.2949 1.49847 30.318 1.66964C30.3411 1.8408 30.3302 2.01484 30.286 2.18182L29.597 4.72478C29.524 5.00363 29.3602 5.25019 29.1314 5.4255C28.9026 5.6008 28.6219 5.69484 28.3337 5.69275L27.9892 5.65994C27.6546 5.56785 27.3701 5.34699 27.1979 5.04568C27.0257 4.74438 26.9799 4.38714 27.0704 4.05213ZM31.3853 5.5615L32.8946 3.41228C33.0963 3.12706 33.4022 2.93272 33.7461 2.87131C34.09 2.8099 34.4442 2.88637 34.7321 3.08416C34.8738 3.18388 34.9944 3.31067 35.0868 3.45721C35.1793 3.60375 35.2418 3.76715 35.2708 3.93798C35.2997 4.1088 35.2946 4.28367 35.2557 4.45251C35.2167 4.62134 35.1447 4.78079 35.0439 4.92166L33.5345 7.07088C33.4363 7.21203 33.311 7.33223 33.1658 7.42447C33.0207 7.51672 32.8587 7.57917 32.6892 7.60818C32.5197 7.63719 32.3462 7.63219 32.1786 7.59346C32.0111 7.55473 31.8529 7.48305 31.7134 7.3826C31.4293 7.18393 31.2353 6.88091 31.1738 6.53971C31.1123 6.19851 31.1883 5.84685 31.3853 5.5615ZM38.5876 9.10525L36.4384 10.6146C36.2138 10.7614 35.952 10.8411 35.6837 10.8443C35.4067 10.8421 35.1376 10.7524 34.9147 10.5879C34.6919 10.4235 34.5268 10.1927 34.443 9.92874C34.3593 9.66475 34.3612 9.38103 34.4485 9.11819C34.5358 8.85535 34.704 8.62685 34.929 8.46541L37.0782 6.95603C37.2191 6.85516 37.3785 6.78317 37.5474 6.74422C37.7162 6.70528 37.8911 6.70015 38.0619 6.72913C38.2327 6.7581 38.3961 6.82062 38.5427 6.91307C38.6892 7.00551 38.816 7.12606 38.9157 7.26775C39.1135 7.55569 39.19 7.90992 39.1286 8.25381C39.0672 8.59769 38.8728 8.90357 38.5876 9.10525Z" fill="#0050B2"/>
</g>
<defs>
<clipPath id="clip0_4123_1535">
<rect width="42" height="42" fill="white"/>
</clipPath>
</defs>
</svg>
