<svg width="42" height="42" viewBox="0 0 42 42" fill="none" xmlns="http://www.w3.org/2000/svg">
<g clip-path="url(#clip0_4123_1527)">
<path d="M21.0148 9.41354C21.0883 8.39497 21.4247 7.41288 21.9911 6.56312C22.5575 5.71336 23.3345 5.02498 24.2464 4.56517C25.1582 4.10537 26.1737 3.88984 27.1937 3.93965C28.2137 3.98945 29.2034 4.30287 30.0661 4.84932C30.1647 4.91386 30.2442 5.00377 30.296 5.10961C30.3479 5.21545 30.3704 5.33331 30.361 5.4508C30.3516 5.5683 30.3107 5.6811 30.2426 5.77734C30.1746 5.87359 30.0819 5.94972 29.9742 5.99776C28.4745 6.6725 27.2015 7.76585 26.308 9.1465C25.4145 10.5271 24.9386 12.1364 24.9375 13.7809C24.9375 13.9728 24.9375 14.1648 24.9572 14.3535C24.9662 14.4727 24.9425 14.5922 24.8886 14.6989C24.8347 14.8057 24.7526 14.8957 24.6513 14.9592C24.55 15.0227 24.4332 15.0573 24.3136 15.0593C24.194 15.0612 24.0762 15.0305 23.9728 14.9703C23.0059 14.4173 22.2152 13.6021 21.6918 12.6189C21.1684 11.6356 20.9337 10.5244 21.0148 9.41354ZM39.375 26.3497C39.3774 27.0997 39.1696 27.8353 38.7752 28.4733C38.3809 29.1112 37.8157 29.6259 37.1438 29.9591L37.0716 29.9919L30.701 32.7055C30.6381 32.7332 30.5727 32.7552 30.5058 32.7711L20.0058 35.3961C19.9018 35.4229 19.7949 35.4366 19.6875 35.4371H2.625C1.92881 35.4371 1.26113 35.1606 0.768845 34.6683C0.276562 34.176 0 33.5083 0 32.8121V26.2496C0 25.5534 0.276562 24.8858 0.768845 24.3935C1.26113 23.9012 1.92881 23.6246 2.625 23.6246H7.33195L11.043 19.9119C11.5297 19.4231 12.1083 19.0356 12.7456 18.7717C13.3828 18.5079 14.0661 18.3729 14.7558 18.3746H22.9688C23.662 18.3746 24.3463 18.5314 24.9704 18.8334C25.5944 19.1354 26.142 19.5748 26.5721 20.1185C27.0022 20.6622 27.3037 21.2963 27.4539 21.9731C27.6041 22.6499 27.5992 23.3519 27.4395 24.0266L34.3038 22.4483C34.9014 22.2901 35.5274 22.2711 36.1334 22.393C36.7394 22.5149 37.3094 22.7743 37.7994 23.1512C38.2893 23.5282 38.6862 24.0126 38.9594 24.5671C39.2326 25.1217 39.3748 25.7315 39.375 26.3497ZM36.75 26.3497C36.7498 26.1327 36.6996 25.9186 36.6033 25.7242C36.507 25.5297 36.3672 25.36 36.1947 25.2283C36.0222 25.0966 35.8217 25.0064 35.6087 24.9648C35.3958 24.9231 35.176 24.931 34.9666 24.988L34.9158 25.0011L23.9236 27.5293C23.8272 27.5509 23.7287 27.5619 23.6299 27.5621H18.375C18.0269 27.5621 17.6931 27.4239 17.4469 27.1777C17.2008 26.9316 17.0625 26.5977 17.0625 26.2496C17.0625 25.9015 17.2008 25.5677 17.4469 25.3216C17.6931 25.0754 18.0269 24.9371 18.375 24.9371H22.9688C23.4909 24.9371 23.9917 24.7297 24.3609 24.3605C24.7301 23.9913 24.9375 23.4905 24.9375 22.9684C24.9375 22.4462 24.7301 21.9455 24.3609 21.5763C23.9917 21.2071 23.4909 20.9996 22.9688 20.9996H14.7558C14.4109 20.9985 14.0693 21.066 13.7508 21.1981C13.4322 21.3302 13.1431 21.5243 12.9002 21.7691L9.1875 25.4802V32.8121H19.5234L29.7659 30.2511L36.0002 27.5966C36.2272 27.477 36.417 27.2976 36.5492 27.0778C36.6814 26.858 36.7508 26.6062 36.75 26.3497ZM27.5625 13.7809C27.5625 14.949 27.9089 16.0909 28.5579 17.0622C29.2069 18.0335 30.1293 18.7905 31.2085 19.2375C32.2878 19.6846 33.4753 19.8015 34.621 19.5736C35.7667 19.3458 36.8191 18.7832 37.6451 17.9572C38.4711 17.1312 39.0336 16.0788 39.2615 14.9331C39.4894 13.7874 39.3724 12.5999 38.9254 11.5207C38.4784 10.4414 37.7214 9.519 36.7501 8.87002C35.7788 8.22103 34.6369 7.87463 33.4688 7.87463C31.9023 7.87463 30.4 8.4969 29.2924 9.60453C28.1848 10.7122 27.5625 12.2144 27.5625 13.7809Z" fill="#0050B2"/>
</g>
<defs>
<clipPath id="clip0_4123_1527">
<rect width="42" height="42" fill="white"/>
</clipPath>
</defs>
</svg>
