<svg width="42" height="42" viewBox="0 0 42 42" fill="none" xmlns="http://www.w3.org/2000/svg">
<g clip-path="url(#clip0_4123_1519)">
<path d="M40.6875 34.1248C40.6875 34.4729 40.5492 34.8068 40.3031 35.0529C40.0569 35.2991 39.7231 35.4373 39.375 35.4373H2.625C2.2769 35.4373 1.94306 35.2991 1.69692 35.0529C1.45078 34.8068 1.3125 34.4729 1.3125 34.1248C1.3125 33.7768 1.45078 33.4429 1.69692 33.1968C1.94306 32.9506 2.2769 32.8123 2.625 32.8123H39.375C39.7231 32.8123 40.0569 32.9506 40.3031 33.1968C40.5492 33.4429 40.6875 33.7768 40.6875 34.1248ZM2.67422 16.1075C2.59615 15.8323 2.61017 15.539 2.71412 15.2725C2.81807 15.0059 3.00628 14.7807 3.25008 14.6309L20.3126 4.13094C20.5193 4.00382 20.7573 3.93652 21 3.93652C21.2427 3.93652 21.4807 4.00382 21.6874 4.13094L38.7499 14.6309C38.9938 14.7805 39.1821 15.0056 39.2863 15.272C39.3904 15.5385 39.4047 15.8317 39.3268 16.1069C39.249 16.3822 39.0834 16.6245 38.8551 16.797C38.6269 16.9695 38.3486 17.0626 38.0625 17.0623H34.125V27.5623H36.75C37.0981 27.5623 37.4319 27.7006 37.6781 27.9468C37.9242 28.1929 38.0625 28.5268 38.0625 28.8748C38.0625 29.2229 37.9242 29.5568 37.6781 29.8029C37.4319 30.0491 37.0981 30.1873 36.75 30.1873H5.25C4.9019 30.1873 4.56806 30.0491 4.32192 29.8029C4.07578 29.5568 3.9375 29.2229 3.9375 28.8748C3.9375 28.5268 4.07578 28.1929 4.32192 27.9468C4.56806 27.7006 4.9019 27.5623 5.25 27.5623H7.875V17.0623H3.9375C3.65168 17.0624 3.37365 16.9692 3.14564 16.7969C2.91763 16.6246 2.7521 16.3825 2.67422 16.1075ZM23.625 26.2498C23.625 26.5979 23.7633 26.9318 24.0094 27.1779C24.2556 27.4241 24.5894 27.5623 24.9375 27.5623C25.2856 27.5623 25.6194 27.4241 25.8656 27.1779C26.1117 26.9318 26.25 26.5979 26.25 26.2498V18.3748C26.25 18.0268 26.1117 17.6929 25.8656 17.4468C25.6194 17.2006 25.2856 17.0623 24.9375 17.0623C24.5894 17.0623 24.2556 17.2006 24.0094 17.4468C23.7633 17.6929 23.625 18.0268 23.625 18.3748V26.2498ZM15.75 26.2498C15.75 26.5979 15.8883 26.9318 16.1344 27.1779C16.3806 27.4241 16.7144 27.5623 17.0625 27.5623C17.4106 27.5623 17.7444 27.4241 17.9906 27.1779C18.2367 26.9318 18.375 26.5979 18.375 26.2498V18.3748C18.375 18.0268 18.2367 17.6929 17.9906 17.4468C17.7444 17.2006 17.4106 17.0623 17.0625 17.0623C16.7144 17.0623 16.3806 17.2006 16.1344 17.4468C15.8883 17.6929 15.75 18.0268 15.75 18.3748V26.2498Z" fill="#0050B2"/>
</g>
<defs>
<clipPath id="clip0_4123_1519">
<rect width="42" height="42" fill="white"/>
</clipPath>
</defs>
</svg>
